<?xml version="1.0" encoding="UTF-8"?>
<svg id="Layer_1" xmlns="http://www.w3.org/2000/svg" version="1.1" viewBox="0 0 120 40">
  <!-- Generator: Adobe Illustrator 30.3.0, SVG Export Plug-In . SVG Version: 2.1.3 Build 182)  -->
  <defs>
    <style>
      .st0 {
        fill: #9e7fba;
      }
    </style>
  </defs>
  <path class="st0" d="M52.9,17.5c-1.5-.8-2.1,1.3-2.8,2.2-3.7,5.1-10.5,7.7-16.3,4.5-3.9-2.2-6.5-6.2-10.4-8.3-6.8-3.7-15.3-.9-19.8,5.1-.7.9-2.4,3.1-.9,3.9,1.4.7,1.7-.6,2.3-1.4,2-2.8,4.6-5.1,7.9-6.1-.7,5.1,1.7,10.3,5.8,13.3,11.1,8.2,29.4,1.2,34.4-11,.3-.7.6-1.6-.3-2.1ZM42.7,27.8c-5.5,3.7-13.2,5.1-19.4,2.4-4.8-2.1-8.1-6.7-7.7-12.1,0-.2.2-1.2.2-1.3.2-.3,2.8,0,3.4.1,5.4,1.2,8.4,6.5,12.9,9.2,3.2,1.9,7,2.5,10.7,1.6h0Z"/>
  <path class="st0" d="M15.7,11.9c.9,0,1.8,0,2.6,0,4.5-4.7,13.5-4.6,17.9.3,2.2,2.4,3.4,5.8,3,9.1,0,.6-.3,1.3-.4,1.9.9,0,1.8,0,2.7-.2h0c1.6-7.5-3-15-10.5-16.7-4.8-1.1-10.3-.2-14,3.2-.4.4-1.8,1.9-2,2.4,0,.3.4,0,.6,0Z"/>
  <path class="st0" d="M64.1,11.1h0c-.7-.4-1.5-.6-2.5-.6h-3.3v8.9h3.3c.9,0,1.8-.2,2.5-.6s1.3-.9,1.6-1.6.6-1.4.6-2.3-.2-1.7-.6-2.3c-.4-.7-.9-1.2-1.6-1.6ZM63.5,16.9h0c-.5.4-1.1.7-1.9.7h-1v-5.2h1c.8,0,1.5.2,1.9.7.5.5.7,1.1.7,1.9s-.2,1.5-.7,1.9Z"/>
  <path class="st0" d="M73.6,10.6h-2.5l-3.2,8.9h2.3l.5-1.6h3.3l.5,1.6h2.3l-3.2-8.9ZM71.3,16.2l1.1-3.3,1.1,3.3h-2.2Z"/>
  <polygon class="st0" points="86.7 10.6 84.6 10.6 84.6 16.1 80.9 10.6 78.7 10.6 78.7 19.5 80.9 19.5 80.9 14 84.6 19.5 86.7 19.5 86.7 10.6"/>
  <path class="st0" d="M91.8,10.6l-3.2,8.9h2.3l.5-1.6h3.3l.5,1.6h2.3l-3.2-8.9h-2.5ZM92,16.2l1.1-3.3,1.1,3.3h-2.2Z"/>
  <polygon class="st0" points="105.3 16.1 101.6 10.6 99.5 10.6 99.5 19.5 101.6 19.5 101.6 14 105.3 19.5 107.5 19.5 107.5 10.6 105.3 10.6 105.3 16.1"/>
  <polygon class="st0" points="115.7 10.6 115.7 16.1 112.1 10.6 109.9 10.6 109.9 19.5 112.1 19.5 112.1 14 115.7 19.5 117.9 19.5 117.9 10.6 115.7 10.6"/>
  <path class="st0" d="M65.2,26.7c.2-.3.3-.6.3-1s0-.6-.2-.8c-.1-.3-.4-.4-.7-.6s-.7-.2-1.1-.2h-1.9v5.5h.9v-2.2h.7l1.3,2.2h1.1l-1.4-2.3c.4-.1.8-.3,1-.6ZM62.6,26.6v-1.9h1c.3,0,.6,0,.8.2.2.2.3.4.3.7s0,.5-.3.7c-.2.2-.4.3-.8.3h-1Z"/>
  <polygon class="st0" points="69.1 29.6 72.2 29.6 72.2 28.8 70 28.8 70 27.1 71.9 27.1 71.9 26.4 70 26.4 70 24.7 72.2 24.7 72.2 24 69.1 24 69.1 29.6"/>
  <polygon class="st0" points="78.6 28.4 76.7 24 75.7 24 75.7 29.6 76.6 29.6 76.6 25.8 78.3 29.6 78.9 29.6 80.6 25.8 80.6 29.6 81.5 29.6 81.5 24 80.6 24 78.6 28.4"/>
  <polygon class="st0" points="85.1 29.6 88.2 29.6 88.2 28.8 86 28.8 86 27.1 88 27.1 88 26.4 86 26.4 86 24.7 88.2 24.7 88.2 24 85.1 24 85.1 29.6"/>
  <path class="st0" d="M95.1,24.3h0c-.4-.2-1-.3-1.6-.3h-1.8v5.5h1.8c.6,0,1.1-.1,1.6-.3.4-.2.8-.5,1-1s.4-.9.4-1.5-.1-1.1-.4-1.5-.6-.7-1-1ZM95,28.3c-.3.3-.8.5-1.5.5h-.9v-4.1h.9c.6,0,1.1.2,1.5.5.3.4.5.9.5,1.5s-.2,1.1-.5,1.5Z"/>
  <rect class="st0" x="99.7" y="24" width=".9" height="5.5"/>
  <polygon class="st0" points="104.2 29.6 107.3 29.6 107.3 28.8 105.2 28.8 105.2 27.1 107.1 27.1 107.1 26.4 105.2 26.4 105.2 24.7 107.3 24.7 107.3 24 104.2 24 104.2 29.6"/>
  <path class="st0" d="M113.7,26.7c-.2-.1-.5-.2-.9-.3-.3,0-.5-.1-.7-.2-.2,0-.3-.1-.4-.3-.1-.1-.2-.2-.2-.4,0-.2,0-.4.2-.6s.4-.2.6-.2.5,0,.7.2c.2.1.3.3.3.5h1c0-.5-.2-.8-.6-1.1-.3-.3-.8-.4-1.3-.4s-.7,0-1,.2c-.3.1-.5.3-.7.5s-.2.5-.2.8,0,.6.2.8c.2.2.4.4.6.5s.5.2.9.3c.3,0,.5.1.7.2.2,0,.3.2.4.3.1.1.2.3.2.5s0,.4-.3.6c-.2.2-.4.2-.7.2s-.5,0-.7-.2c-.2-.2-.3-.4-.3-.6h-1c0,.3,0,.6.3.8.2.2.4.4.7.6h0c.3.1.6.2,1,.2s.7,0,1-.2c.3-.2.5-.4.7-.6.2-.3.2-.5.2-.8s0-.6-.2-.8c-.2-.2-.4-.4-.6-.5Z"/>
</svg>