<?xml version="1.0" encoding="UTF-8"?>
<svg id="Layer_1" xmlns="http://www.w3.org/2000/svg" version="1.1" xmlns:xlink="http://www.w3.org/1999/xlink" viewBox="0 0 120 40">
  <!-- Generator: Adobe Illustrator 30.3.0, SVG Export Plug-In . SVG Version: 2.1.3 Build 182)  -->
  <defs>
    <style>
      .st0 {
        fill: url(#New_Gradient_Swatch_114);
      }

      .st1 {
        fill: url(#New_Gradient_Swatch_15);
      }

      .st2 {
        fill: url(#New_Gradient_Swatch_18);
      }

      .st3 {
        fill: url(#New_Gradient_Swatch_113);
      }

      .st4 {
        fill: url(#New_Gradient_Swatch_111);
      }

      .st5 {
        fill: url(#New_Gradient_Swatch_13);
      }

      .st6 {
        fill: url(#New_Gradient_Swatch_14);
      }

      .st7 {
        fill: url(#New_Gradient_Swatch_19);
      }

      .st8 {
        fill: url(#New_Gradient_Swatch_11);
      }

      .st9 {
        fill: url(#New_Gradient_Swatch_112);
      }

      .st10 {
        fill: url(#New_Gradient_Swatch_16);
      }

      .st11 {
        fill: url(#New_Gradient_Swatch_115);
      }

      .st12 {
        fill: url(#New_Gradient_Swatch_110);
      }

      .st13 {
        fill: url(#New_Gradient_Swatch_1);
      }

      .st14 {
        fill: url(#New_Gradient_Swatch_12);
      }

      .st15 {
        fill: url(#New_Gradient_Swatch_17);
      }
    </style>
    <linearGradient id="New_Gradient_Swatch_1" data-name="New Gradient Swatch 1" x1="2.1" y1="24.2" x2="53.5" y2="24.2" gradientUnits="userSpaceOnUse">
      <stop offset="0" stop-color="#6b97cf"/>
      <stop offset="1" stop-color="#9e7fba"/>
    </linearGradient>
    <linearGradient id="New_Gradient_Swatch_11" data-name="New Gradient Swatch 1" x1="15.1" y1="14.5" x2="41.9" y2="14.5" xlink:href="#New_Gradient_Swatch_1"/>
    <linearGradient id="New_Gradient_Swatch_12" data-name="New Gradient Swatch 1" x1="58.3" y1="15" x2="66.4" y2="15" xlink:href="#New_Gradient_Swatch_1"/>
    <linearGradient id="New_Gradient_Swatch_13" data-name="New Gradient Swatch 1" x1="67.9" y1="15" x2="76.9" y2="15" xlink:href="#New_Gradient_Swatch_1"/>
    <linearGradient id="New_Gradient_Swatch_14" data-name="New Gradient Swatch 1" x1="78.7" y1="15" x2="86.7" y2="15" xlink:href="#New_Gradient_Swatch_1"/>
    <linearGradient id="New_Gradient_Swatch_15" data-name="New Gradient Swatch 1" x1="88.6" y1="15" x2="97.6" y2="15" xlink:href="#New_Gradient_Swatch_1"/>
    <linearGradient id="New_Gradient_Swatch_16" data-name="New Gradient Swatch 1" x1="99.5" y1="15" x2="107.5" y2="15" xlink:href="#New_Gradient_Swatch_1"/>
    <linearGradient id="New_Gradient_Swatch_17" data-name="New Gradient Swatch 1" x1="109.9" y1="15" x2="117.9" y2="15" xlink:href="#New_Gradient_Swatch_1"/>
    <linearGradient id="New_Gradient_Swatch_18" data-name="New Gradient Swatch 1" x1="61.7" y1="26.8" x2="65.7" y2="26.8" xlink:href="#New_Gradient_Swatch_1"/>
    <linearGradient id="New_Gradient_Swatch_19" data-name="New Gradient Swatch 1" x1="69.1" y1="26.8" x2="72.2" y2="26.8" xlink:href="#New_Gradient_Swatch_1"/>
    <linearGradient id="New_Gradient_Swatch_110" data-name="New Gradient Swatch 1" x1="75.7" y1="26.8" x2="81.5" y2="26.8" xlink:href="#New_Gradient_Swatch_1"/>
    <linearGradient id="New_Gradient_Swatch_111" data-name="New Gradient Swatch 1" x1="85.1" y1="26.8" x2="88.2" y2="26.8" xlink:href="#New_Gradient_Swatch_1"/>
    <linearGradient id="New_Gradient_Swatch_112" data-name="New Gradient Swatch 1" x1="91.7" y1="26.8" x2="96.4" y2="26.8" xlink:href="#New_Gradient_Swatch_1"/>
    <linearGradient id="New_Gradient_Swatch_113" data-name="New Gradient Swatch 1" x1="99.7" y1="26.8" x2="100.7" y2="26.8" xlink:href="#New_Gradient_Swatch_1"/>
    <linearGradient id="New_Gradient_Swatch_114" data-name="New Gradient Swatch 1" x1="104.2" y1="26.8" x2="107.3" y2="26.8" xlink:href="#New_Gradient_Swatch_1"/>
    <linearGradient id="New_Gradient_Swatch_115" data-name="New Gradient Swatch 1" x1="110.7" y1="26.8" x2="114.6" y2="26.8" xlink:href="#New_Gradient_Swatch_1"/>
  </defs>
  <g>
    <path class="st13" d="M13,17.3c-3.4.9-6,3.3-7.9,6.1-.6.8-.9,2.2-2.3,1.4-1.5-.8.2-3,.9-3.9,4.5-6,12.9-8.8,19.8-5.1,3.9,2.1,6.5,6.2,10.4,8.3,5.8,3.2,12.7.7,16.3-4.5.7-.9,1.3-3,2.8-2.2.9.5.6,1.4.3,2.1-5.1,12.2-23.3,19.2-34.4,11-4.1-3-6.5-8.2-5.8-13.3ZM42.7,27.8c-3.7.9-7.5.3-10.7-1.6-4.5-2.6-7.5-8-12.9-9.2-.5-.1-3.1-.5-3.4-.1,0,.1-.2,1.1-.2,1.3-.4,5.4,2.9,10,7.7,12.1,6.2,2.7,14,1.3,19.4-2.4h0Z"/>
    <path class="st8" d="M41.5,23c-.9.3-1.8.2-2.7.2.1-.6.3-1.3.4-1.9.3-3.3-.8-6.7-3-9.1-4.4-4.8-13.4-5-17.9-.3-.9,0-1.8,0-2.6,0-.2,0-.7.2-.6,0,.2-.5,1.5-2,2-2.4,3.7-3.4,9.1-4.3,14-3.2,7.5,1.7,12.2,9.2,10.5,16.7h0Z"/>
  </g>
  <g>
    <path class="st14" d="M64.1,11.1c.7.4,1.2.9,1.6,1.6.4.7.6,1.5.6,2.3s-.2,1.6-.6,2.3-.9,1.2-1.6,1.6c-.7.4-1.5.6-2.5.6h-3.3v-8.9h3.3c.9,0,1.8.2,2.5.6h0ZM63.5,16.9c.5-.4.7-1.1.7-1.9s-.2-1.5-.7-1.9c-.5-.5-1.1-.7-1.9-.7h-1v5.2h1c.8,0,1.5-.2,1.9-.7h0Z"/>
    <path class="st5" d="M74,17.9h-3.3l-.5,1.6h-2.3l3.2-8.9h2.5l3.2,8.9h-2.3l-.5-1.6h0ZM73.5,16.2l-1.1-3.3-1.1,3.3h2.2Z"/>
    <path class="st6" d="M86.7,19.5h-2.2l-3.6-5.5v5.5h-2.2v-8.9h2.2l3.6,5.5v-5.5h2.2v8.9Z"/>
    <path class="st1" d="M94.8,17.9h-3.3l-.5,1.6h-2.3l3.2-8.9h2.5l3.2,8.9h-2.3l-.5-1.6h0ZM94.2,16.2l-1.1-3.3-1.1,3.3h2.2,0Z"/>
    <path class="st10" d="M107.5,19.5h-2.2l-3.6-5.5v5.5h-2.2v-8.9h2.2l3.6,5.5v-5.5h2.2v8.9Z"/>
    <path class="st15" d="M117.9,19.5h-2.2l-3.6-5.5v5.5h-2.2v-8.9h2.2l3.6,5.5v-5.5h2.2v8.9Z"/>
  </g>
  <g>
    <path class="st2" d="M64.6,29.6l-1.3-2.2h-.7v2.2h-.9v-5.5h1.9c.4,0,.8,0,1.1.2.3.2.5.3.7.6.1.2.2.5.2.8s-.1.7-.3,1c-.2.3-.5.5-1,.6l1.4,2.3h-1.1ZM62.6,26.6h1c.3,0,.6,0,.8-.3.2-.2.3-.4.3-.7s0-.5-.3-.7-.4-.2-.8-.2h-1v1.9h0Z"/>
    <path class="st7" d="M70,24.7v1.6h1.9v.7h-1.9v1.7h2.2v.7h-3.1v-5.6h3.1v.7h-2.2Z"/>
    <path class="st12" d="M81.5,24v5.5h-.9v-3.8l-1.7,3.8h-.6l-1.7-3.8v3.8h-.9v-5.5h1l1.9,4.3,1.9-4.3h1,0Z"/>
    <path class="st4" d="M86,24.7v1.6h1.9v.7h-1.9v1.7h2.2v.7h-3.1v-5.6h3.1v.7h-2.2Z"/>
    <path class="st9" d="M95.1,24.3c.4.2.8.5,1,1s.4.9.4,1.5-.1,1.1-.4,1.5c-.2.4-.6.7-1,1-.4.2-1,.3-1.6.3h-1.8v-5.5h1.8c.6,0,1.1.1,1.6.3h0ZM95,28.3c.3-.4.5-.8.5-1.5s-.2-1.1-.5-1.5c-.3-.4-.8-.5-1.5-.5h-.9v4.1h.9c.6,0,1.1-.2,1.5-.5Z"/>
    <path class="st3" d="M100.7,24v5.5h-.9v-5.5h.9Z"/>
    <path class="st0" d="M105.2,24.7v1.6h1.9v.7h-1.9v1.7h2.2v.7h-3.1v-5.6h3.1v.7h-2.2Z"/>
    <path class="st11" d="M111.6,29.4c-.3-.1-.5-.3-.7-.6-.2-.2-.3-.5-.3-.8h1c0,.2.1.4.3.6.2.2.4.2.7.2s.6,0,.7-.2.3-.3.3-.6,0-.3-.2-.5c-.1-.1-.2-.2-.4-.3s-.4-.1-.7-.2c-.4,0-.7-.2-.9-.3s-.4-.3-.6-.5-.2-.5-.2-.8,0-.6.2-.8.4-.4.7-.5c.3-.1.6-.2,1-.2.5,0,1,.1,1.3.4.3.3.5.6.6,1.1h-1c0-.2-.1-.4-.3-.5-.2-.1-.4-.2-.7-.2s-.5,0-.6.2c-.2.1-.2.3-.2.6s0,.3.2.4c.1.1.2.2.4.3s.4.1.7.2c.4.1.7.2.9.3.2.1.4.3.6.5s.2.5.2.8,0,.5-.2.8c-.2.2-.4.5-.7.6-.3.2-.6.2-1,.2s-.7,0-1-.2h0Z"/>
  </g>
</svg>